<svg xmlns="http://www.w3.org/2000/svg" viewBox="0 0 64 64" id="discount">
  <path d="M55.35 23.86a21.42 21.42 0 0 1-2.62-3.2 22.22 22.22 0 0 1-1.65-4c-1-3-2.2-6.38-5.22-8.07s-6.16-.93-9.33-.26A23.22 23.22 0 0 1 32 9a23.22 23.22 0 0 1-4.53-.66C24.29 7.68 21 7 18.14 8.6s-4.19 5.08-5.22 8.07a22.22 22.22 0 0 1-1.65 4 21.43 21.43 0 0 1-2.62 3.2C6.47 26.22 4 28.9 4 32.5s2.47 6.28 4.65 8.64a21.42 21.42 0 0 1 2.62 3.2 22.22 22.22 0 0 1 1.65 4c1 3 2.2 6.38 5.22 8.07s6.16.93 9.33.26A23.22 23.22 0 0 1 32 56a23.22 23.22 0 0 1 4.53.66 25.9 25.9 0 0 0 5.2.73 8.25 8.25 0 0 0 4.13-1c3-1.69 4.19-5.08 5.22-8.07a22.22 22.22 0 0 1 1.65-4 21.43 21.43 0 0 1 2.62-3.2c2.18-2.36 4.65-5 4.65-8.64s-2.47-6.26-4.65-8.62zM25.09 17a6.31 6.31 0 0 1 6.09 6.5 6.31 6.31 0 0 1-6.09 6.5A6.31 6.31 0 0 1 19 23.5a6.31 6.31 0 0 1 6.09-6.5zm-2.64 28.38a2 2 0 1 1-2.89-2.76l22-23a2 2 0 1 1 2.89 2.76zm17.64.62a6.51 6.51 0 0 1 0-13 6.51 6.51 0 0 1 0 13z"></path>
  <ellipse cx="40.09" cy="39.5" rx="2.09" ry="2.5"></ellipse>
  <ellipse cx="25.09" cy="23.5" rx="2.09" ry="2.5"></ellipse>
</svg>
